<svg width="796" height="797" viewBox="0 0 796 797" fill="none" xmlns="http://www.w3.org/2000/svg">
<path d="M426.733 552.9L304.367 675.267C281.267 696.767 250.167 709.967 216 709.967C144.267 709.967 86.1333 651.833 86.1333 580.1C86.1333 545.933 99.3333 514.833 120.9 491.633L120.833 491.7L243.2 369.333C250.267 361.667 254.567 351.367 254.567 340.067C254.567 316.167 235.167 296.767 211.267 296.767C199.967 296.767 189.7 301.1 181.967 308.167L182 308.133L59.6333 430.5C22.7 469.233 0 521.833 0 579.7C0 699.233 96.9 796.167 216.467 796.167C274.4 796.167 327 773.4 365.867 736.333L365.767 736.4L488.133 614.033C495.2 606.367 499.5 596.067 499.5 584.767C499.5 560.867 480.1 541.467 456.2 541.467C444.9 541.467 434.633 545.8 426.9 552.867L426.933 552.833L426.733 552.9Z" fill="url(#paint0_linear_693_22)"/>
<path d="M796.233 216.3C796.166 96.8 699.3 -0.0666504 579.766 -0.0666504C520 -0.0666504 465.866 24.1667 426.7 63.3333L304.333 185.7C295.7 193.633 290.3 205 290.3 217.633C290.3 241.533 309.7 260.933 333.6 260.933C346.233 260.933 357.566 255.533 365.5 246.933L365.533 246.9L487.9 124.533C511 103.033 542.1 89.8333 576.266 89.8333C648 89.8333 706.133 147.967 706.133 219.7C706.133 253.867 692.933 284.967 671.366 308.167L671.433 308.1L549.066 430.467C540.433 438.4 535.033 449.767 535.033 462.4C535.033 486.3 554.433 505.7 578.333 505.7C590.966 505.7 602.3 500.3 610.233 491.7L610.266 491.667L732.633 369.3C771.9 330.333 796.233 276.333 796.233 216.633C796.233 216.533 796.233 216.4 796.233 216.3Z" fill="url(#paint1_linear_693_22)"/>
<path d="M243.067 553.067C250.9 560.9 261.7 565.733 273.667 565.733C285.633 565.733 296.433 560.9 304.267 553.067L549 308.333C556.067 300.667 560.367 290.367 560.367 279.067C560.367 255.167 540.967 235.767 517.067 235.767C505.767 235.767 495.5 240.1 487.767 247.167L487.8 247.133L243.067 491.867C235.233 499.7 230.4 510.5 230.4 522.467C230.4 534.433 235.233 545.233 243.067 553.067Z" fill="url(#paint2_linear_693_22)"/>
<defs>
<linearGradient id="paint0_linear_693_22" x1="249.75" y1="296.767" x2="249.75" y2="796.167" gradientUnits="userSpaceOnUse">
<stop stop-color="#A415B0"/>
<stop offset="0.25" stop-color="#892FD0"/>
<stop offset="0.57" stop-color="#892FD0"/>
<stop offset="0.97" stop-color="#144EE3"/>
</linearGradient>
<linearGradient id="paint1_linear_693_22" x1="543.266" y1="-0.0666504" x2="543.266" y2="505.7" gradientUnits="userSpaceOnUse">
<stop stop-color="#A415B0"/>
<stop offset="0.25" stop-color="#892FD0"/>
<stop offset="0.57" stop-color="#892FD0"/>
<stop offset="0.97" stop-color="#144EE3"/>
</linearGradient>
<linearGradient id="paint2_linear_693_22" x1="395.383" y1="235.767" x2="395.383" y2="565.733" gradientUnits="userSpaceOnUse">
<stop stop-color="#A415B0"/>
<stop offset="0.25" stop-color="#892FD0"/>
<stop offset="0.57" stop-color="#892FD0"/>
<stop offset="0.97" stop-color="#144EE3"/>
</linearGradient>
</defs>
</svg>
